{
  "accessors": [
    {
      "name": "10602_Rubber_Duck_v1_1_0_positions",
      "componentType": 5126,
      "count": 6992,
      "min": [
        -2.5687999725341797,
        -4.597400188446045,
        0.0013000000035390258
      ],
      "max": [
        2.5687999725341797,
        4.781799793243408,
        6.948800086975098
      ],
      "type": "VEC3",
      "bufferView": 0,
      "byteOffset": 0
    },
    {
      "name": "10602_Rubber_Duck_v1_1_0_normals",
      "componentType": 5126,
      "count": 6992,
      "min": [
        -0.9999334216117859,
        -0.9999125599861145,
        -1
      ],
      "max": [
        0.9999334216117859,
        0.999823272228241,
        0.9996380805969238
      ],
      "type": "VEC3",
      "bufferView": 1,
      "byteOffset": 0
    },
    {
      "name": "10602_Rubber_Duck_v1_1_0_texcoords",
      "componentType": 5126,
      "count": 6992,
      "min": [
        0.0006000000284984708,
        0.018799999728798866
      ],
      "max": [
        0.9890000224113464,
        0.9822999835014343
      ],
      "type": "VEC2",
      "bufferView": 2,
      "byteOffset": 0
    },
    {
      "name": "10602_Rubber_Duck_v1_1_0_indices",
      "componentType": 5123,
      "count": 39840,
      "min": [
        0
      ],
      "max": [
        6991
      ],
      "type": "SCALAR",
      "bufferView": 3,
      "byteOffset": 0
    }
  ],
  "asset": {
    "generator": "obj2gltf",
    "version": "2.0"
  },
  "buffers": [
    {
      "name": "duck",
      "byteLength": 303424,
      "uri": "data:application/octet-stream;base64,"
    }
  ],
  "bufferViews": [
    {
      "name": "bufferView_0",
      "buffer": 0,
      "byteLength": 83904,
      "byteOffset": 0,
      "byteStride": 12,
      "target": 34962
    },
    {
      "name": "bufferView_1",
      "buffer": 0,
      "byteLength": 83904,
      "byteOffset": 83904,
      "byteStride": 12,
      "target": 34962
    },
    {
      "name": "bufferView_2",
      "buffer": 0,
      "byteLength": 55936,
      "byteOffset": 167808,
      "byteStride": 8,
      "target": 34962
    },
    {
      "name": "bufferView_3",
      "buffer": 0,
      "byteLength": 79680,
      "byteOffset": 223744,
      "target": 34963
    }
  ],
  "materials": [
    {
      "name": "10602_Rubber_Duck_v1_Mat",
      "pbrMetallicRoughness": {
        "baseColorFactor": [
          0.5,
          0.5,
          0.5,
          1
        ],
        "metallicFactor": 0,
        "roughnessFactor": 1
      },
      "emissiveFactor": [
        0,
        0,
        0
      ],
      "alphaMode": "OPAQUE",
      "doubleSided": false
    }
  ],
  "meshes": [
    {
      "name": "10602_Rubber_Duck_v1_1",
      "primitives": [
        {
          "attributes": {
            "POSITION": 0,
            "NORMAL": 1,
            "TEXCOORD_0": 2
          },
          "indices": 3,
          "material": 0,
          "mode": 4
        }
      ]
    }
  ],
  "nodes": [
    {
      "name": "10602_Rubber_Duck_v1",
      "mesh": 0
    }
  ],
  "scene": 0,
  "scenes": [
    {
      "nodes": [
        0
      ]
    }
  ]
}
